<mxfile host="app.diagrams.net" modified="2024-06-05T19:37:13.404Z" agent="Mozilla/5.0 (Windows NT 10.0; Win64; x64) AppleWebKit/537.36 (KHTML, like Gecko) Chrome/125.0.0.0 Safari/537.36" etag="cBL2eS-jvZy3MwFE56TV" version="24.4.14" type="device">
  <diagram name="Page-1" id="q3X_SAjCmnZSTNGDZ6Px">
    <mxGraphModel dx="36" dy="15" grid="1" gridSize="10" guides="1" tooltips="1" connect="1" arrows="1" fold="1" page="1" pageScale="1" pageWidth="850" pageHeight="1100" math="0" shadow="0">
      <root>
        <mxCell id="0" />
        <mxCell id="1" parent="0" />
        <mxCell id="jXaAcx5OW9A8PkTLRBVf-1" value="User Completes Shipping Address Form" style="rounded=1;whiteSpace=wrap;arcSize=50;strokeWidth=2;" vertex="1" parent="1">
          <mxGeometry x="231" y="20" width="301" height="33" as="geometry" />
        </mxCell>
        <mxCell id="jXaAcx5OW9A8PkTLRBVf-2" value="Display Billing Address Option" style="rounded=1;whiteSpace=wrap;arcSize=50;strokeWidth=2;" vertex="1" parent="1">
          <mxGeometry x="264" y="103" width="235" height="33" as="geometry" />
        </mxCell>
        <mxCell id="jXaAcx5OW9A8PkTLRBVf-3" value="User Selects &#39;Same as Shipping Address&#39;?" style="rhombus;strokeWidth=2;whiteSpace=wrap;" vertex="1" parent="1">
          <mxGeometry x="214" y="187" width="334" height="334" as="geometry" />
        </mxCell>
        <mxCell id="jXaAcx5OW9A8PkTLRBVf-4" value="Removes Billing Address Section" style="rounded=1;whiteSpace=wrap;arcSize=50;strokeWidth=2;" vertex="1" parent="1">
          <mxGeometry x="20" y="589" width="354" height="33" as="geometry" />
        </mxCell>
        <mxCell id="jXaAcx5OW9A8PkTLRBVf-5" value="User Reviews and Confirms Shipping Address" style="rounded=1;whiteSpace=wrap;arcSize=50;strokeWidth=2;" vertex="1" parent="1">
          <mxGeometry x="35" y="672" width="324" height="33" as="geometry" />
        </mxCell>
        <mxCell id="jXaAcx5OW9A8PkTLRBVf-6" value="User Enters Billing Address Manually" style="rounded=1;whiteSpace=wrap;arcSize=50;strokeWidth=2;" vertex="1" parent="1">
          <mxGeometry x="424" y="589" width="282" height="33" as="geometry" />
        </mxCell>
        <mxCell id="jXaAcx5OW9A8PkTLRBVf-7" value="Validate Billing Address" style="rounded=1;whiteSpace=wrap;arcSize=50;strokeWidth=2;" vertex="1" parent="1">
          <mxGeometry x="470" y="672" width="191" height="33" as="geometry" />
        </mxCell>
        <mxCell id="jXaAcx5OW9A8PkTLRBVf-8" value="Billing Address Validation Successful?" style="rhombus;strokeWidth=2;whiteSpace=wrap;" vertex="1" parent="1">
          <mxGeometry x="313" y="756" width="313" height="313" as="geometry" />
        </mxCell>
        <mxCell id="jXaAcx5OW9A8PkTLRBVf-9" value="Proceed to Payment" style="rounded=1;whiteSpace=wrap;arcSize=50;strokeWidth=2;" vertex="1" parent="1">
          <mxGeometry x="279" y="1137" width="167" height="33" as="geometry" />
        </mxCell>
        <mxCell id="jXaAcx5OW9A8PkTLRBVf-10" value="Show Error Message" style="rounded=1;whiteSpace=wrap;arcSize=50;strokeWidth=2;" vertex="1" parent="1">
          <mxGeometry x="495" y="1137" width="164" height="33" as="geometry" />
        </mxCell>
        <mxCell id="jXaAcx5OW9A8PkTLRBVf-11" value="User Corrects Billing Address" style="rounded=1;whiteSpace=wrap;arcSize=50;strokeWidth=2;" vertex="1" parent="1">
          <mxGeometry x="559" y="1220" width="228" height="33" as="geometry" />
        </mxCell>
        <mxCell id="jXaAcx5OW9A8PkTLRBVf-12" value="" style="curved=1;startArrow=none;endArrow=block;exitX=0.49917075325088245;exitY=1.0121212583599668;entryX=0.49893785841921545;entryY=0.012121258359966856;rounded=0;" edge="1" parent="1" source="jXaAcx5OW9A8PkTLRBVf-1" target="jXaAcx5OW9A8PkTLRBVf-2">
          <mxGeometry relative="1" as="geometry">
            <Array as="points" />
          </mxGeometry>
        </mxCell>
        <mxCell id="jXaAcx5OW9A8PkTLRBVf-13" value="" style="curved=1;startArrow=none;endArrow=block;exitX=0.49893785841921545;exitY=1.0242425167199336;entryX=0.500749690803939;entryY=-0.0005987932582101422;rounded=0;" edge="1" parent="1" source="jXaAcx5OW9A8PkTLRBVf-2" target="jXaAcx5OW9A8PkTLRBVf-3">
          <mxGeometry relative="1" as="geometry">
            <Array as="points" />
          </mxGeometry>
        </mxCell>
        <mxCell id="jXaAcx5OW9A8PkTLRBVf-14" value="Yes" style="curved=1;startArrow=none;endArrow=block;exitX=0.043293113859619294;exitY=0.9989661028285226;entryX=0.500441384180791;entryY=0.001656907977479877;rounded=0;" edge="1" parent="1" source="jXaAcx5OW9A8PkTLRBVf-3" target="jXaAcx5OW9A8PkTLRBVf-4">
          <mxGeometry relative="1" as="geometry">
            <Array as="points">
              <mxPoint x="197" y="555" />
            </Array>
          </mxGeometry>
        </mxCell>
        <mxCell id="jXaAcx5OW9A8PkTLRBVf-15" value="" style="curved=1;startArrow=none;endArrow=block;exitX=0.500441384180791;exitY=1.0137781663374468;entryX=0.5004822530864198;entryY=0.013778166337446733;rounded=0;" edge="1" parent="1" source="jXaAcx5OW9A8PkTLRBVf-4" target="jXaAcx5OW9A8PkTLRBVf-5">
          <mxGeometry relative="1" as="geometry">
            <Array as="points" />
          </mxGeometry>
        </mxCell>
        <mxCell id="jXaAcx5OW9A8PkTLRBVf-16" value="No" style="curved=1;startArrow=none;endArrow=block;exitX=0.9582062677482586;exitY=0.9989661028285226;entryX=0.5012217853086215;entryY=0.001656907977479877;rounded=0;" edge="1" parent="1" source="jXaAcx5OW9A8PkTLRBVf-3" target="jXaAcx5OW9A8PkTLRBVf-6">
          <mxGeometry relative="1" as="geometry">
            <Array as="points">
              <mxPoint x="565" y="555" />
            </Array>
          </mxGeometry>
        </mxCell>
        <mxCell id="jXaAcx5OW9A8PkTLRBVf-17" value="" style="curved=1;startArrow=none;endArrow=block;exitX=0.5012217853086215;exitY=1.0137781663374468;entryX=0.49918609139806935;entryY=0.013778166337446733;rounded=0;" edge="1" parent="1" source="jXaAcx5OW9A8PkTLRBVf-6" target="jXaAcx5OW9A8PkTLRBVf-7">
          <mxGeometry relative="1" as="geometry">
            <Array as="points" />
          </mxGeometry>
        </mxCell>
        <mxCell id="jXaAcx5OW9A8PkTLRBVf-18" value="" style="curved=1;startArrow=none;endArrow=block;exitX=0.2986047429192651;exitY=1.0258994246974136;entryX=0.5005803702357478;entryY=-0.0004642779073014427;rounded=0;" edge="1" parent="1" source="jXaAcx5OW9A8PkTLRBVf-7" target="jXaAcx5OW9A8PkTLRBVf-8">
          <mxGeometry relative="1" as="geometry">
            <Array as="points">
              <mxPoint x="470" y="731" />
            </Array>
          </mxGeometry>
        </mxCell>
        <mxCell id="jXaAcx5OW9A8PkTLRBVf-19" value="Yes" style="curved=1;startArrow=none;endArrow=block;exitX=0.21825199445207058;exitY=0.9984224642427585;entryX=0.49688677302377665;entryY=-0.0028414870753432765;rounded=0;" edge="1" parent="1" source="jXaAcx5OW9A8PkTLRBVf-8" target="jXaAcx5OW9A8PkTLRBVf-9">
          <mxGeometry relative="1" as="geometry">
            <Array as="points">
              <mxPoint x="362" y="1103" />
            </Array>
          </mxGeometry>
        </mxCell>
        <mxCell id="jXaAcx5OW9A8PkTLRBVf-20" value="No" style="curved=1;startArrow=none;endArrow=block;exitX=0.7829087460194251;exitY=0.9984224642427585;entryX=0.5023367114183379;entryY=-0.0028414870753432765;rounded=0;" edge="1" parent="1" source="jXaAcx5OW9A8PkTLRBVf-8" target="jXaAcx5OW9A8PkTLRBVf-10">
          <mxGeometry relative="1" as="geometry">
            <Array as="points">
              <mxPoint x="577" y="1103" />
            </Array>
          </mxGeometry>
        </mxCell>
        <mxCell id="jXaAcx5OW9A8PkTLRBVf-21" value="" style="curved=1;startArrow=none;endArrow=block;exitX=0.5023367114183379;exitY=1.0092797712846235;entryX=0.3321713626596403;entryY=0.009279771284623579;rounded=0;" edge="1" parent="1" source="jXaAcx5OW9A8PkTLRBVf-10" target="jXaAcx5OW9A8PkTLRBVf-11">
          <mxGeometry relative="1" as="geometry">
            <Array as="points">
              <mxPoint x="577" y="1195" />
            </Array>
          </mxGeometry>
        </mxCell>
        <mxCell id="jXaAcx5OW9A8PkTLRBVf-22" value="" style="curved=1;startArrow=none;endArrow=block;exitX=0.6029575538059232;exitY=0.009279771284623579;entryX=0.847670366505605;entryY=1.0258994246974136;rounded=0;" edge="1" parent="1" source="jXaAcx5OW9A8PkTLRBVf-11" target="jXaAcx5OW9A8PkTLRBVf-7">
          <mxGeometry relative="1" as="geometry">
            <Array as="points">
              <mxPoint x="732" y="1195" />
              <mxPoint x="732" y="731" />
            </Array>
          </mxGeometry>
        </mxCell>
      </root>
    </mxGraphModel>
  </diagram>
</mxfile>
